<?xml version="1.0" encoding="UTF-8" standalone="no"?>
<!-- Created with Inkscape (http://www.inkscape.org/) -->

<svg
   xmlns:dc="http://purl.org/dc/elements/1.1/"
   xmlns:cc="http://creativecommons.org/ns#"
   xmlns:rdf="http://www.w3.org/1999/02/22-rdf-syntax-ns#"
   xmlns:svg="http://www.w3.org/2000/svg"
   xmlns="http://www.w3.org/2000/svg"
   xmlns:sodipodi="http://sodipodi.sourceforge.net/DTD/sodipodi-0.dtd"
   xmlns:inkscape="http://www.inkscape.org/namespaces/inkscape"
   width="388.88989"
   height="349.65268"
   id="svg2985"
   version="1.1"
   inkscape:version="0.48.5 r10040"
   sodipodi:docname="Heart PCB.svg">
  <defs
     id="defs2987" />
  <sodipodi:namedview
     id="base"
     pagecolor="#ffffff"
     bordercolor="#ffffff"
     borderopacity="0.0"
     inkscape:pageopacity="0.0"
     inkscape:pageshadow="0"
     inkscape:zoom="0.98994949"
     inkscape:cx="227.08043"
     inkscape:cy="229.25168"
     inkscape:document-units="px"
     inkscape:current-layer="layer1"
     showgrid="true"
     inkscape:window-width="1920"
     inkscape:window-height="1017"
     inkscape:window-x="1672"
     inkscape:window-y="-8"
     inkscape:window-maximized="1"
     fit-margin-top="0"
     fit-margin-left="0"
     fit-margin-right="0"
     fit-margin-bottom="0"
     units="in">
    <inkscape:grid
       type="xygrid"
       id="grid2995"
       empspacing="5"
       visible="true"
       enabled="true"
       snapvisiblegridlinesonly="true"
       units="in"
       spacingx="1in"
       spacingy="1in"
       originx="5.0015799in"
       originy="-1.1035248in" />
  </sodipodi:namedview>
  <metadata
     id="metadata2990">
    <rdf:RDF>
      <cc:Work
         rdf:about="">
        <dc:format>image/svg+xml</dc:format>
        <dc:type
           rdf:resource="http://purl.org/dc/dcmitype/StillImage" />
        <dc:title></dc:title>
      </cc:Work>
    </rdf:RDF>
  </metadata>
  <g
     inkscape:label="Heart PCB"
     inkscape:groupmode="layer"
     id="layer1"
     transform="translate(450.14219,-603.39155)">
    <g
       inkscape:groupmode="layer"
       id="board"
       inkscape:label="board">
      <path
         inkscape:connector-curvature="0"
         d="m -271.01413,933.47091 c -8.37028,-9.37973 -29.27045,-27.66567 -46.44482,-40.63541 -50.8863,-38.4283 -57.81194,-43.98966 -78.47283,-63.01428 -38.08966,-35.07311 -54.26571,-70.31009 -54.21027,-118.08863 0.027,-23.32358 1.61679,-32.30942 8.14839,-46.05748 11.08135,-23.32471 27.40474,-40.6568 48.27418,-51.25722 14.7811,-7.50787 22.07111,-10.84349 46.75455,-10.97996 25.82064,-0.14269 31.25619,2.8679 46.44482,11.21208 18.48716,10.1563 37.51566,31.86206 41.44912,47.28087 l 2.42941,9.52318 5.99111,-13.11562 c 33.85539,-74.11568 141.94381,-73.00682 179.559137,1.84211 11.932642,23.74419 13.242697,74.44396 2.661538,103.00288 -13.802717,37.25405 -39.727535,65.65587 -99.656885,109.17876 -39.30268,28.54308 -83.78434,71.72943 -86.88084,77.795 -3.59448,7.04106 -0.17145,1.10342 -16.04661,-16.68628 z"
         id="path2417"
         style="fill:#338040;fill-opacity:0.50196078;stroke:none" />
      <g
         transform="matrix(0.60764044,0,0,0.60764044,-373.10487,559.6785)"
         id="g2221" />
    </g>
    <g
       inkscape:groupmode="layer"
       id="silkscreen"
       inkscape:label="silkscreen" />
  </g>
</svg>
