<?xml version="1.0" encoding="UTF-8" standalone="no"?>
<!-- Created with Inkscape (http://www.inkscape.org/) -->

<svg
   xmlns:dc="http://purl.org/dc/elements/1.1/"
   xmlns:cc="http://creativecommons.org/ns#"
   xmlns:rdf="http://www.w3.org/1999/02/22-rdf-syntax-ns#"
   xmlns:svg="http://www.w3.org/2000/svg"
   xmlns="http://www.w3.org/2000/svg"
   version="1.1"
   width="388.88989"
   height="349.65268"
   id="svg2985">
  <defs
     id="defs2987" />
  <metadata
     id="metadata2990">
    <rdf:RDF>
      <cc:Work
         rdf:about="">
        <dc:format>image/svg+xml</dc:format>
        <dc:type
           rdf:resource="http://purl.org/dc/dcmitype/StillImage" />
        <dc:title></dc:title>
      </cc:Work>
    </rdf:RDF>
  </metadata>
  <g
     transform="translate(450.14219,-603.39155)"
     id="layer1">
    <g
       id="board">
      <path
         d="m -271.01413,933.47091 c -8.37028,-9.37973 -29.27045,-27.66567 -46.44482,-40.63541 -50.8863,-38.4283 -57.81194,-43.98966 -78.47283,-63.01428 -38.08966,-35.07311 -54.26571,-70.31009 -54.21027,-118.08863 0.027,-23.32358 1.61679,-32.30942 8.14839,-46.05748 11.08135,-23.32471 27.40474,-40.6568 48.27418,-51.25722 14.7811,-7.50787 22.07111,-10.84349 46.75455,-10.97996 25.82064,-0.14269 31.25619,2.8679 46.44482,11.21208 18.48716,10.1563 37.51566,31.86206 41.44912,47.28087 l 2.42941,9.52318 5.99111,-13.11562 c 33.85539,-74.11568 141.94381,-73.00682 179.559137,1.84211 11.932642,23.74419 13.242697,74.44396 2.661538,103.00288 -13.802717,37.25405 -39.727535,65.65587 -99.656885,109.17876 -39.30268,28.54308 -83.78434,71.72943 -86.88084,77.795 -3.59448,7.04106 -0.17145,1.10342 -16.04661,-16.68628 z"
         id="path2417"
         style="fill:#338040;fill-opacity:0.50196078;stroke:none" />
      <g
         transform="matrix(0.60764044,0,0,0.60764044,-373.10487,559.6785)"
         id="g2221" />
    </g>
    <g
       id="silkscreen" />
  </g>
</svg>
